<svg aria-hidden="true" style="position: absolute; width: 0; height: 0; overflow: hidden;" version="1.1" xmlns="http://www.w3.org/2000/svg" xmlns:xlink="http://www.w3.org/1999/xlink">
<defs>
<symbol id="icon-search" viewBox="0 0 26 28">
<path d="M18 13c0-3.859-3.141-7-7-7s-7 3.141-7 7 3.141 7 7 7 7-3.141 7-7zM26 26c0 1.094-0.906 2-2 2-0.531 0-1.047-0.219-1.406-0.594l-5.359-5.344c-1.828 1.266-4.016 1.937-6.234 1.937-6.078 0-11-4.922-11-11s4.922-11 11-11 11 4.922 11 11c0 2.219-0.672 4.406-1.937 6.234l5.359 5.359c0.359 0.359 0.578 0.875 0.578 1.406z"></path>
</symbol>
<symbol id="icon-pencil" viewBox="0 0 24 28">
<path d="M5.672 24l1.422-1.422-3.672-3.672-1.422 1.422v1.672h2v2h1.672zM13.844 9.5c0-0.203-0.141-0.344-0.344-0.344-0.094 0-0.187 0.031-0.266 0.109l-8.469 8.469c-0.078 0.078-0.109 0.172-0.109 0.266 0 0.203 0.141 0.344 0.344 0.344 0.094 0 0.187-0.031 0.266-0.109l8.469-8.469c0.078-0.078 0.109-0.172 0.109-0.266zM13 6.5l6.5 6.5-13 13h-6.5v-6.5zM23.672 8c0 0.531-0.219 1.047-0.578 1.406l-2.594 2.594-6.5-6.5 2.594-2.578c0.359-0.375 0.875-0.594 1.406-0.594s1.047 0.219 1.422 0.594l3.672 3.656c0.359 0.375 0.578 0.891 0.578 1.422z"></path>
</symbol>
<symbol id="icon-wrench" viewBox="0 0 26 28">
<path d="M6 23c0-0.547-0.453-1-1-1s-1 0.453-1 1 0.453 1 1 1 1-0.453 1-1zM16.063 16.438l-10.656 10.656c-0.359 0.359-0.875 0.578-1.406 0.578s-1.047-0.219-1.422-0.578l-1.656-1.687c-0.375-0.359-0.594-0.875-0.594-1.406s0.219-1.047 0.594-1.422l10.641-10.641c0.812 2.047 2.453 3.687 4.5 4.5zM25.969 9.641c0 0.516-0.187 1.156-0.359 1.656-0.984 2.781-3.656 4.703-6.609 4.703-3.859 0-7-3.141-7-7s3.141-7 7-7c1.141 0 2.625 0.344 3.578 0.984 0.156 0.109 0.25 0.25 0.25 0.438 0 0.172-0.109 0.344-0.25 0.438l-4.578 2.641v3.5l3.016 1.672c0.516-0.297 4.141-2.578 4.453-2.578s0.5 0.234 0.5 0.547z"></path>
</symbol>
<symbol id="icon-safari" viewBox="0 0 28 28">
<path d="M14.828 13.953c0 0.516-0.359 1-0.906 1-0.516 0-1-0.375-1-0.906 0-0.516 0.375-1 0.922-1 0.5 0 0.984 0.359 0.984 0.906zM15.062 14.859l5.469-9.078c-0.734 0.688-7.578 6.984-7.766 7.313l-5.453 9.063c0.719-0.672 7.578-7 7.75-7.297zM25.172 14c0 2.047-0.562 4.062-1.625 5.797-0.156-0.078-0.812-0.547-0.938-0.547-0.109 0-0.203 0.094-0.203 0.203 0 0.203 0.734 0.578 0.922 0.688-1.547 2.344-3.938 4.031-6.656 4.703l-0.25-1.047c-0.016-0.141-0.109-0.156-0.234-0.156-0.109 0-0.172 0.156-0.156 0.234l0.25 1.062c-0.75 0.156-1.516 0.234-2.281 0.234-2.047 0-4.062-0.578-5.812-1.641 0.094-0.156 0.688-1.016 0.688-1.141 0-0.109-0.094-0.203-0.203-0.203-0.219 0-0.688 0.938-0.828 1.125-2.359-1.563-4.062-3.984-4.719-6.75l1.078-0.234c0.125-0.031 0.156-0.125 0.156-0.234s-0.156-0.172-0.25-0.156l-1.062 0.234c-0.141-0.719-0.219-1.437-0.219-2.172 0-2.094 0.594-4.156 1.703-5.922 0.156 0.094 0.906 0.609 1.031 0.609 0.109 0 0.203-0.078 0.203-0.187 0-0.219-0.828-0.641-1.016-0.766 1.594-2.328 4.016-4 6.766-4.625l0.234 1.047c0.031 0.125 0.125 0.156 0.234 0.156s0.172-0.156 0.156-0.25l-0.234-1.031c0.688-0.125 1.391-0.203 2.094-0.203v0c2.094 0 4.141 0.594 5.922 1.703-0.109 0.156-0.609 0.891-0.609 1.016 0 0.109 0.078 0.203 0.187 0.203 0.219 0 0.641-0.812 0.75-1 2.312 1.563 3.969 3.953 4.609 6.672l-0.875 0.187c-0.141 0.031-0.156 0.125-0.156 0.25 0 0.109 0.156 0.172 0.234 0.156l0.891-0.203c0.141 0.719 0.219 1.453 0.219 2.187zM26.5 14c0-6.906-5.594-12.5-12.5-12.5s-12.5 5.594-12.5 12.5 5.594 12.5 12.5 12.5 12.5-5.594 12.5-12.5zM28 14c0 7.734-6.266 14-14 14s-14-6.266-14-14 6.266-14 14-14 14 6.266 14 14z"></path>
</symbol>
<symbol id="icon-map" viewBox="0 0 24 24">
<path d="M15.418 0.581l-7.201 3.99-8.217-4.571v18.303l8.434 4.572 6.799-4.008 7.767 4.278v-18.271l-7.582-4.293zM21 12.234l-5-2.562v-6.278l5 2.678v6.162zM9 6.304l5-2.857v6.272l-5 2.857v-6.272zM9 13.729l5-2.858v6.274l-5 2.855v-6.271zM7 6.304v6.235l-5-3.007v-6.086l5 2.858zM2 10.7l5 3.007v6.293l-5-2.855v-6.445zM16 17.125v-6.329l5 2.562v6.445l-5-2.678z"></path>
</symbol>
</defs>
</svg>
